<?xml version="1.0" encoding="utf-8"?><svg xmlns="http://www.w3.org/2000/svg" xmlns:xlink="http://www.w3.org/1999/xlink"><symbol viewBox="0 0 12 22" id="face" xmlns="http://www.w3.org/2000/svg"><path d="M8.832 0C5.696 0 3.548 1.822 3.548 5.17v2.884H0v3.912h3.548V22h4.24V11.966h3.539l.531-3.912h-4.07V5.556c0-1.133.332-1.905 2.037-1.905H12V.154C11.624.106 10.334 0 8.832 0z"/></symbol><symbol viewBox="0 0 23 24" id="ins" xmlns="http://www.w3.org/2000/svg"><path d="M6.657 0C2.986 0 0 3.125 0 6.965v10.072C0 20.877 2.986 24 6.657 24h9.686C20.014 24 23 20.877 23 17.037V6.965C23 3.125 20.014 0 16.343 0H6.657zm0 2.063h9.686c2.613 0 4.686 2.169 4.686 4.902v10.072c0 2.733-2.073 4.9-4.686 4.9H6.657c-2.613 0-4.685-2.167-4.685-4.9V6.965c0-2.733 2.072-4.902 4.685-4.902zm11.016 2.063c-.762 0-1.38.646-1.38 1.443s.618 1.443 1.38 1.443c.762 0 1.379-.646 1.379-1.443s-.617-1.443-1.38-1.443zM11.5 5.821C8.249 5.82 5.593 8.599 5.593 12c0 3.4 2.656 6.18 5.907 6.18s5.909-2.78 5.909-6.18-2.658-6.18-5.909-6.18zm0 2.063c2.185 0 3.937 1.83 3.937 4.116 0 2.286-1.752 4.116-3.937 4.116-2.185 0-3.935-1.83-3.935-4.116 0-2.286 1.75-4.116 3.935-4.116z"/></symbol><symbol viewBox="0 0 55 55" id="logo" xmlns="http://www.w3.org/2000/svg"><circle cx="27.5" cy="27.5" r="27.5"/><g clip-path="url(#cclip0)"><path d="M34.8 23.442c-2.076 0-3.765-1.67-3.765-3.721 0-2.052 1.689-3.721 3.765-3.721s3.765 1.67 3.765 3.721c0 2.052-1.689 3.721-3.765 3.721zm0-5.068c-.773 0-1.402.604-1.402 1.347s.629 1.347 1.402 1.347c.773 0 1.402-.604 1.402-1.347s-.63-1.347-1.402-1.347zM40.818 34H16.182a1.19 1.19 0 01-.963-1.875l8.352-11.799a1.18 1.18 0 011.916-.014l5.875 8.037 3.412-3.326a1.178 1.178 0 011.766.136l5.189 6.898c.17.205.271.468.271.756C42 33.47 41.47 34 40.818 34zm-22.346-2.374h19.97l-2.981-3.964-3.426 3.34a1.178 1.178 0 01-1.775-.15l-5.71-7.811-6.078 8.585z"/></g><defs><clipPath id="cclip0"><path d="M15 16h27v18H15z"/></clipPath></defs></symbol><symbol viewBox="0 0 22 18" id="tw" xmlns="http://www.w3.org/2000/svg"><path d="M22 2.13a8.976 8.976 0 01-2.592.716A4.554 4.554 0 0021.392.332a8.987 8.987 0 01-2.866 1.103A4.492 4.492 0 0015.232 0c-2.493 0-4.513 2.034-4.513 4.544 0 .356.04.703.117 1.036-3.751-.19-7.077-2-9.303-4.748a4.544 4.544 0 00-.611 2.284A4.55 4.55 0 002.93 6.899 4.466 4.466 0 01.885 6.33v.057a4.54 4.54 0 003.62 4.456 4.488 4.488 0 01-2.038.078 4.523 4.523 0 004.216 3.156 9.02 9.02 0 01-5.606 1.945A9.34 9.34 0 010 15.959 12.716 12.716 0 006.92 18c8.3 0 12.84-6.924 12.84-12.93 0-.196-.005-.392-.013-.587a9.224 9.224 0 002.252-2.353"/></symbol></svg>